<svg xmlns="http://www.w3.org/2000/svg" xmlns:xlink="http://www.w3.org/1999/xlink" width="500" zoomAndPan="magnify" viewBox="0 0 375 374.999991" height="500" preserveAspectRatio="xMidYMid meet" version="1.0"><defs><g/><clipPath id="c946783487"><path d="M 152.035156 118.414062 L 223.285156 118.414062 L 223.285156 199.414062 L 152.035156 199.414062 Z M 152.035156 118.414062 " clip-rule="nonzero"/></clipPath></defs><rect x="-37.5" width="450" fill="#ffffff" y="-37.499999" height="449.999989" fill-opacity="1"/><rect x="-37.5" width="450" fill="#ffffff" y="-37.499999" height="449.999989" fill-opacity="1"/><rect x="-37.5" width="450" fill="#ffffff" y="-37.499999" height="449.999989" fill-opacity="1"/><g clip-path="url(#c946783487)"><path fill="#507dbc" d="M 214.804688 183.605469 C 214.269531 183.917969 213.734375 184.230469 213.199219 184.539062 L 213.199219 184.542969 C 211.296875 185.652344 209.40625 186.761719 207.523438 187.863281 C 207.523438 187.863281 207.523438 187.863281 207.519531 187.863281 C 205.007812 189.332031 202.519531 190.789062 200.050781 192.234375 C 198.863281 192.925781 197.679688 193.621094 196.503906 194.308594 C 193.5625 196.027344 190.664062 197.722656 187.816406 199.386719 C 184.71875 197.570312 181.601562 195.746094 178.476562 193.914062 C 172.714844 190.542969 166.925781 187.15625 161.195312 183.800781 C 158.355469 182.140625 155.53125 180.488281 152.734375 178.851562 C 152.304688 178.597656 152.042969 178.140625 152.054688 177.644531 C 152.109375 174.578125 152.164062 171.492188 152.21875 168.386719 C 152.230469 167.800781 152.242188 167.214844 152.25 166.628906 C 152.269531 165.578125 153.425781 164.9375 154.335938 165.472656 C 156.464844 166.71875 158.605469 167.972656 160.757812 169.230469 C 161.1875 169.480469 161.449219 169.945312 161.441406 170.4375 C 161.417969 171.542969 161.398438 172.644531 161.378906 173.746094 C 169.679688 178.605469 178.125 183.546875 186.460938 188.425781 C 186.894531 188.679688 187.429688 188.679688 187.863281 188.425781 C 188.808594 187.875 189.753906 187.316406 190.707031 186.761719 C 192.507812 185.707031 194.328125 184.644531 196.160156 183.574219 C 197.066406 183.042969 197.070312 181.742188 196.164062 181.210938 C 184.820312 174.566406 173.078125 167.695312 161.613281 160.984375 C 158.535156 159.183594 155.476562 157.394531 152.453125 155.625 C 152.492188 153.621094 152.527344 151.621094 152.566406 149.621094 C 152.597656 148.03125 152.625 146.441406 152.652344 144.855469 C 152.660156 144.484375 152.667969 144.113281 152.671875 143.746094 C 152.695312 142.695312 153.847656 142.054688 154.757812 142.589844 C 156.386719 143.542969 158.027344 144.503906 159.675781 145.46875 C 160.175781 145.761719 160.679688 146.054688 161.179688 146.347656 C 161.605469 146.597656 161.867188 147.058594 161.859375 147.550781 C 161.847656 148.171875 161.835938 148.792969 161.824219 149.414062 C 161.816406 149.910156 162.074219 150.367188 162.503906 150.617188 C 177.414062 159.34375 192.910156 168.414062 207.488281 176.949219 C 209.4375 178.09375 211.367188 179.222656 213.277344 180.34375 C 213.789062 180.640625 214.296875 180.941406 214.804688 181.238281 C 215.710938 181.773438 215.710938 183.074219 214.804688 183.605469 Z M 222.601562 138.695312 C 219.800781 137.058594 216.976562 135.402344 214.136719 133.738281 C 208.4375 130.402344 202.675781 127.027344 196.929688 123.664062 C 194.097656 122.007812 191.269531 120.351562 188.457031 118.707031 C 188.023438 118.453125 187.488281 118.453125 187.054688 118.707031 C 184.398438 120.261719 181.71875 121.835938 179.019531 123.417969 C 177.902344 124.070312 176.78125 124.726562 175.65625 125.382812 C 172.878906 127.007812 170.089844 128.644531 167.292969 130.277344 C 165.570312 131.285156 163.851562 132.292969 162.128906 133.300781 C 161.519531 133.660156 160.910156 134.019531 160.296875 134.375 C 159.390625 134.910156 159.390625 136.210938 160.296875 136.738281 C 160.878906 137.082031 161.460938 137.421875 162.046875 137.761719 C 163.839844 138.8125 165.640625 139.867188 167.449219 140.925781 C 182.65625 149.824219 198.296875 158.980469 212.816406 167.488281 C 213.246094 167.738281 213.503906 168.199219 213.496094 168.691406 C 213.488281 168.953125 213.484375 169.214844 213.480469 169.472656 C 213.472656 169.96875 213.730469 170.429688 214.160156 170.679688 C 214.839844 171.078125 215.515625 171.472656 216.191406 171.867188 C 217.667969 172.730469 219.132812 173.589844 220.582031 174.4375 C 221.492188 174.972656 222.648438 174.332031 222.667969 173.28125 C 222.667969 173.269531 222.667969 173.265625 222.667969 173.253906 C 222.699219 171.511719 222.730469 169.765625 222.765625 168.015625 C 222.789062 166.546875 222.820312 165.078125 222.84375 163.605469 C 222.855469 163.109375 222.597656 162.652344 222.167969 162.398438 C 219.386719 160.769531 216.5625 159.117188 213.699219 157.441406 C 202.269531 150.746094 190.289062 143.730469 178.488281 136.824219 C 177.582031 136.292969 177.582031 134.992188 178.488281 134.460938 C 180.601562 133.222656 182.71875 131.984375 184.832031 130.746094 C 185.71875 130.230469 186.605469 129.710938 187.488281 129.191406 C 187.925781 128.9375 188.460938 128.9375 188.894531 129.191406 C 197.023438 133.949219 205.222656 138.746094 213.257812 143.453125 C 213.6875 143.703125 213.945312 144.164062 213.933594 144.660156 C 213.917969 145.6875 213.894531 146.71875 213.875 147.75 L 213.875 147.753906 C 216.265625 149.152344 218.640625 150.542969 220.992188 151.921875 C 221.90625 152.453125 223.058594 151.8125 223.078125 150.761719 C 223.089844 150.25 223.097656 149.734375 223.109375 149.222656 C 223.164062 146.101562 223.222656 142.992188 223.28125 139.898438 C 223.289062 139.40625 223.03125 138.945312 222.601562 138.695312 Z M 222.601562 138.695312 " fill-opacity="1" fill-rule="nonzero"/></g><g fill="#507dbc" fill-opacity="1"><g transform="translate(94.823457, 236.209144)"><g><path d="M 8.066406 0.371094 C 12.386719 0.371094 14.945312 -1.664062 14.945312 -5.089844 C 14.945312 -7.96875 13.082031 -9.65625 8.863281 -10.601562 C 6.628906 -11.097656 5.808594 -11.644531 5.808594 -12.535156 C 5.808594 -13.378906 6.554688 -13.902344 7.71875 -13.902344 C 9.109375 -13.902344 9.90625 -13.183594 9.90625 -11.867188 L 14.621094 -11.867188 C 14.621094 -15.441406 11.890625 -17.75 7.621094 -17.75 C 3.523438 -17.75 0.992188 -15.714844 0.992188 -12.4375 C 0.992188 -9.507812 2.90625 -7.695312 6.828125 -6.949219 C 8.9375 -6.527344 9.953125 -5.882812 9.953125 -4.890625 C 9.953125 -4.023438 9.210938 -3.523438 7.992188 -3.523438 C 6.554688 -3.523438 5.710938 -4.292969 5.710938 -5.636719 L 0.867188 -5.636719 C 0.867188 -1.886719 3.550781 0.371094 8.066406 0.371094 Z M 8.066406 0.371094 "/></g></g></g><g fill="#507dbc" fill-opacity="1"><g transform="translate(110.683606, 236.209144)"><g><path d="M 1.835938 0 L 6.800781 0 L 6.800781 -8.8125 L 10.152344 -4.121094 L 13.40625 -4.121094 L 16.730469 -8.789062 L 16.730469 0 L 21.695312 0 L 21.695312 -17.378906 L 17.625 -17.378906 L 11.765625 -9.109375 L 5.933594 -17.378906 L 1.835938 -17.378906 Z M 1.835938 0 "/></g></g></g><g fill="#507dbc" fill-opacity="1"><g transform="translate(134.213218, 236.209144)"><g><path d="M 0.125 0 L 5.4375 0 L 6.378906 -2.457031 L 12.3125 -2.457031 L 13.257812 0 L 18.59375 0 L 11.839844 -17.378906 L 6.875 -17.378906 Z M 7.421875 -6.132812 L 9.359375 -11.519531 L 11.296875 -6.132812 Z M 7.421875 -6.132812 "/></g></g></g><g fill="#507dbc" fill-opacity="1"><g transform="translate(152.927694, 236.209144)"><g><path d="M 1.835938 0 L 6.851562 0 L 6.851562 -4.941406 L 8.738281 -4.941406 L 11.222656 0 L 16.90625 0 L 13.703125 -5.859375 C 15.539062 -6.875 16.582031 -8.714844 16.582031 -11.144531 C 16.582031 -14.996094 13.976562 -17.378906 9.757812 -17.378906 L 1.835938 -17.378906 Z M 6.753906 -8.9375 L 6.753906 -13.28125 L 9.085938 -13.28125 C 10.675781 -13.28125 11.542969 -12.511719 11.542969 -11.121094 C 11.542969 -9.730469 10.675781 -8.9375 9.085938 -8.9375 Z M 6.753906 -8.9375 "/></g></g></g><g fill="#507dbc" fill-opacity="1"><g transform="translate(170.798284, 236.209144)"><g><path d="M 5.984375 0 L 10.972656 0 L 10.972656 -12.734375 L 16.261719 -12.734375 L 16.261719 -17.378906 L 0.695312 -17.378906 L 0.695312 -12.734375 L 5.984375 -12.734375 Z M 5.984375 0 "/></g></g></g><g fill="#507dbc" fill-opacity="1"><g transform="translate(187.75053, 236.209144)"><g/></g></g><g fill="#507dbc" fill-opacity="1"><g transform="translate(193.484008, 236.209144)"><g><path d="M 8.066406 0.371094 C 12.386719 0.371094 14.945312 -1.664062 14.945312 -5.089844 C 14.945312 -7.96875 13.082031 -9.65625 8.863281 -10.601562 C 6.628906 -11.097656 5.808594 -11.644531 5.808594 -12.535156 C 5.808594 -13.378906 6.554688 -13.902344 7.71875 -13.902344 C 9.109375 -13.902344 9.90625 -13.183594 9.90625 -11.867188 L 14.621094 -11.867188 C 14.621094 -15.441406 11.890625 -17.75 7.621094 -17.75 C 3.523438 -17.75 0.992188 -15.714844 0.992188 -12.4375 C 0.992188 -9.507812 2.90625 -7.695312 6.828125 -6.949219 C 8.9375 -6.527344 9.953125 -5.882812 9.953125 -4.890625 C 9.953125 -4.023438 9.210938 -3.523438 7.992188 -3.523438 C 6.554688 -3.523438 5.710938 -4.292969 5.710938 -5.636719 L 0.867188 -5.636719 C 0.867188 -1.886719 3.550781 0.371094 8.066406 0.371094 Z M 8.066406 0.371094 "/></g></g></g><g fill="#507dbc" fill-opacity="1"><g transform="translate(209.344157, 236.209144)"><g><path d="M 1.835938 0 L 6.851562 0 L 6.851562 -4.292969 L 9.160156 -4.292969 C 13.578125 -4.292969 16.382812 -6.851562 16.382812 -10.847656 C 16.382812 -14.84375 13.578125 -17.378906 9.160156 -17.378906 L 1.835938 -17.378906 Z M 6.800781 -8.488281 L 6.800781 -13.15625 L 8.6875 -13.15625 C 10.351562 -13.15625 11.320312 -12.261719 11.320312 -10.824219 C 11.320312 -9.359375 10.351562 -8.488281 8.6875 -8.488281 Z M 6.800781 -8.488281 "/></g></g></g><g fill="#507dbc" fill-opacity="1"><g transform="translate(226.296404, 236.209144)"><g><path d="M 1.835938 0 L 14.027344 0 L 14.027344 -4.097656 L 6.800781 -4.097656 L 6.800781 -6.777344 L 13.082031 -6.777344 L 13.082031 -10.800781 L 6.800781 -10.800781 L 6.800781 -13.332031 L 13.753906 -13.332031 L 13.753906 -17.378906 L 1.835938 -17.378906 Z M 1.835938 0 "/></g></g></g><g fill="#507dbc" fill-opacity="1"><g transform="translate(241.436764, 236.209144)"><g><path d="M 1.835938 0 L 6.800781 0 L 6.800781 -8.863281 L 13.40625 0 L 17.476562 0 L 17.476562 -17.378906 L 12.535156 -17.378906 L 12.535156 -8.566406 L 5.933594 -17.378906 L 1.835938 -17.378906 Z M 1.835938 0 "/></g></g></g><g fill="#507dbc" fill-opacity="1"><g transform="translate(260.771751, 236.209144)"><g><path d="M 1.835938 0 L 9.210938 0 C 14.820312 0 18.542969 -3.449219 18.542969 -8.6875 C 18.542969 -13.902344 14.820312 -17.378906 9.210938 -17.378906 L 1.835938 -17.378906 Z M 6.851562 -4.492188 L 6.851562 -12.882812 L 9.0625 -12.882812 C 11.71875 -12.882812 13.429688 -11.246094 13.429688 -8.6875 C 13.429688 -6.132812 11.71875 -4.492188 9.0625 -4.492188 Z M 6.851562 -4.492188 "/></g></g></g></svg>